<svg xmlns="http://www.w3.org/2000/svg" width="494.25" viewBox="0 0 494.25 173.25" height="173.25" version="1.0"><defs><clipPath id="a"><path d="M 0.691406 0 L 492.8125 0 L 492.8125 172.503906 L 0.691406 172.503906 Z M 0.691406 0"/></clipPath></defs><g clip-path="url(#a)" fill="#FFF"><path d="M 0.691406 0 L 493.558594 0 L 493.558594 179.972656 L 0.691406 179.972656 Z M 0.691406 0"/><path d="M 0.691406 0 L 492.8125 0 L 492.8125 172.503906 L 0.691406 172.503906 Z M 0.691406 0"/><path d="M 0.691406 0 L 492.8125 0 L 492.8125 172.503906 L 0.691406 172.503906 Z M 0.691406 0"/></g><g><g><g><path d="M 87.023438 -64.535156 L 96.609375 -64.535156 L 75.523438 -0.253906 L 64.660156 -0.253906 L 49.582031 -49.710938 L 34.375 -0.253906 L 23.511719 -0.253906 L 2.429688 -64.535156 L 12.011719 -64.535156 L 28.878906 -13.164062 L 44.597656 -64.535156 L 54.4375 -64.535156 L 70.15625 -13.164062 Z M 87.023438 -64.535156" transform="translate(.692 115.83)"/></g></g></g><g><g><g><path d="M 61.722656 -64.535156 L 70.796875 -64.535156 L 70.796875 -0.253906 L 61.722656 -0.253906 L 61.722656 -12.394531 C 56.992188 -6.390625 49.070312 0.640625 37.824219 0.640625 C 17.25 0.640625 4.984375 -16.101562 4.984375 -32.457031 C 4.984375 -49.070312 17.890625 -65.429688 36.929688 -65.429688 C 49.070312 -65.429688 56.867188 -60.316406 61.722656 -53.542969 Z M 36.804688 -8.433594 C 49.582031 -8.433594 59.933594 -19.167969 59.933594 -32.457031 C 59.933594 -45.621094 49.582031 -56.355469 36.804688 -56.355469 C 23.898438 -56.355469 13.546875 -45.621094 13.546875 -32.457031 C 13.546875 -19.167969 23.898438 -8.433594 36.804688 -8.433594 Z M 36.804688 -8.433594" transform="translate(99.728 115.83)"/></g></g></g><g><g><g><path d="M 61.722656 -94.820312 L 70.796875 -94.820312 L 70.796875 -0.253906 L 61.722656 -0.253906 L 61.722656 -12.394531 C 56.992188 -6.390625 49.070312 0.640625 37.824219 0.640625 C 17.25 0.640625 4.984375 -16.101562 4.984375 -32.457031 C 4.984375 -49.199219 17.890625 -65.554688 36.929688 -65.554688 C 49.070312 -65.554688 56.867188 -60.445312 61.722656 -53.542969 Z M 36.804688 -8.433594 C 49.582031 -8.433594 59.933594 -19.167969 59.933594 -32.457031 C 59.933594 -45.75 49.582031 -56.484375 36.804688 -56.484375 C 23.898438 -56.484375 13.546875 -45.75 13.546875 -32.457031 C 13.546875 -19.167969 23.898438 -8.433594 36.804688 -8.433594 Z M 36.804688 -8.433594" transform="translate(179.34 115.83)"/></g></g></g><g><g><g><path d="M 61.722656 -94.820312 L 70.796875 -94.820312 L 70.796875 -0.253906 L 61.722656 -0.253906 L 61.722656 -12.394531 C 56.992188 -6.390625 49.070312 0.640625 37.824219 0.640625 C 17.25 0.640625 4.984375 -16.101562 4.984375 -32.457031 C 4.984375 -49.199219 17.890625 -65.554688 36.929688 -65.554688 C 49.070312 -65.554688 56.867188 -60.445312 61.722656 -53.542969 Z M 36.804688 -8.433594 C 49.582031 -8.433594 59.933594 -19.167969 59.933594 -32.457031 C 59.933594 -45.75 49.582031 -56.484375 36.804688 -56.484375 C 23.898438 -56.484375 13.546875 -45.75 13.546875 -32.457031 C 13.546875 -19.167969 23.898438 -8.433594 36.804688 -8.433594 Z M 36.804688 -8.433594" transform="translate(258.953 115.83)"/></g></g></g><g><g><g><path d="M 55.332031 -64.535156 L 64.660156 -64.535156 L 64.660156 -0.253906 L 55.332031 -0.253906 L 55.332031 -9.328125 C 51.371094 -3.324219 46.132812 0.640625 35.910156 0.640625 C 18.785156 0.640625 8.816406 -13.546875 8.816406 -27.472656 L 8.816406 -64.535156 L 18.144531 -64.535156 C 18.144531 -64.535156 18.144531 -34.246094 18.144531 -27.472656 C 18.144531 -20.703125 23.003906 -8.691406 36.292969 -8.691406 C 55.332031 -8.691406 55.332031 -29.007812 55.332031 -29.007812 Z M 55.332031 -64.535156" transform="translate(338.566 115.83)"/></g></g></g><g><g><g><path d="M 43.320312 -65.429688 C 62.871094 -65.429688 75.777344 -49.710938 75.777344 -32.332031 C 75.777344 -15.71875 62.746094 0.640625 43.449219 0.640625 C 31.308594 0.640625 23.128906 -5.367188 17.890625 -12.777344 L 17.890625 29.773438 L 8.816406 29.773438 L 8.816406 -64.535156 L 17.890625 -64.535156 L 17.890625 -51.882812 C 22.492188 -58.273438 30.542969 -65.429688 43.320312 -65.429688 Z M 43.449219 -8.433594 C 56.484375 -8.433594 67.089844 -19.167969 67.089844 -32.332031 C 67.089844 -45.621094 56.484375 -56.355469 43.449219 -56.355469 C 30.285156 -56.355469 18.914062 -45.621094 18.914062 -32.332031 C 18.914062 -19.167969 30.285156 -8.433594 43.449219 -8.433594 Z M 43.449219 -8.433594" transform="translate(412.044 115.83)"/></g></g></g></svg>