<svg xmlns="http://www.w3.org/2000/svg" width="375" viewBox="0 0 375 375" height="375" version="1.0"><path fill="#FFF" d="M-37.5 -37.5H412.5V412.5H-37.5z"/><path fill="#FFF" d="M-37.5 -37.5H412.5V412.5H-37.5z"/><path fill="#2B2B2B" d="M-37.5 -37.5H412.5V412.5H-37.5z"/><g fill="#525050"><g><g><path d="M 257.109375 -192.625 C 265.671875 -192.625 272.6875 -192.898438 278.15625 -193.453125 L 278.15625 -187.984375 C 267.40625 -182.703125 258.929688 -169.953125 252.734375 -149.734375 L 206.84375 0 C 201.007812 -0.363281 196.179688 -0.546875 192.359375 -0.546875 C 188.710938 -0.546875 183.976562 -0.363281 178.15625 0 L 142.625 -108.46875 L 104.109375 0 C 98.273438 -0.363281 93.445312 -0.546875 89.625 -0.546875 C 85.976562 -0.546875 81.238281 -0.363281 75.40625 0 L 12.015625 -170.5 C 9.835938 -176.320312 7.289062 -180.644531 4.375 -183.46875 C 1.457031 -186.300781 -1.363281 -187.804688 -4.09375 -187.984375 L -4.09375 -193.453125 C 9.019531 -192.898438 25.140625 -192.625 44.265625 -192.625 C 60.835938 -192.625 72.953125 -192.898438 80.609375 -193.453125 L 80.609375 -187.984375 C 75.691406 -187.078125 73.234375 -183.4375 73.234375 -177.0625 C 73.234375 -173.226562 74.050781 -169.21875 75.6875 -165.03125 L 115.3125 -53.546875 L 139.34375 -118.578125 L 120.765625 -175.140625 C 119.304688 -179.691406 117.484375 -182.878906 115.296875 -184.703125 C 113.117188 -186.523438 110.296875 -187.617188 106.828125 -187.984375 L 106.828125 -193.453125 C 119.035156 -192.898438 134.796875 -192.625 154.109375 -192.625 C 173.046875 -192.625 187.160156 -192.898438 196.453125 -193.453125 L 196.453125 -187.984375 C 189.898438 -187.804688 185.164062 -186.988281 182.25 -185.53125 C 179.332031 -184.070312 177.875 -181.429688 177.875 -177.609375 C 177.875 -174.140625 178.785156 -169.945312 180.609375 -165.03125 L 216.671875 -55.46875 L 237.71875 -122.953125 C 242.632812 -139.160156 245.09375 -151.910156 245.09375 -161.203125 C 245.09375 -170.316406 243.039062 -176.96875 238.9375 -181.15625 C 234.84375 -185.34375 228.96875 -187.617188 221.3125 -187.984375 L 221.3125 -193.453125 C 234.976562 -192.898438 246.910156 -192.625 257.109375 -192.625 Z M 257.109375 -192.625" transform="translate(19.283 218.782)"/></g></g></g><g fill="#EEEFE8"><g><g><path d="M 98.640625 -193.453125 C 136.347656 -193.453125 164.582031 -185.390625 183.34375 -169.265625 C 202.101562 -153.148438 211.484375 -129.695312 211.484375 -98.90625 C 211.484375 -79.050781 206.882812 -61.703125 197.6875 -46.859375 C 188.488281 -32.015625 175.234375 -20.492188 157.921875 -12.296875 C 140.617188 -4.097656 120.035156 0 96.171875 0 L 79.234375 -0.265625 C 68.304688 -0.628906 60.289062 -0.8125 55.1875 -0.8125 C 33.875 -0.8125 18.03125 -0.539062 7.65625 0 L 7.65625 -5.46875 C 13.476562 -5.832031 17.707031 -6.5625 20.34375 -7.65625 C 22.988281 -8.75 24.765625 -10.84375 25.671875 -13.9375 C 26.585938 -17.03125 27.046875 -22.039062 27.046875 -28.96875 L 27.046875 -164.484375 C 27.046875 -171.410156 26.546875 -176.421875 25.546875 -179.515625 C 24.546875 -182.609375 22.769531 -184.703125 20.21875 -185.796875 C 17.664062 -186.890625 13.476562 -187.617188 7.65625 -187.984375 L 7.65625 -193.453125 C 16.03125 -192.898438 28.414062 -192.625 44.8125 -192.625 L 54.640625 -192.625 L 66.671875 -192.90625 C 81.972656 -193.269531 92.628906 -193.453125 98.640625 -193.453125 Z M 102.734375 -188.53125 C 97.085938 -188.53125 92.851562 -187.890625 90.03125 -186.609375 C 87.207031 -185.335938 85.25 -183.0625 84.15625 -179.78125 C 83.0625 -176.507812 82.515625 -171.59375 82.515625 -165.03125 L 82.515625 -28.421875 C 82.515625 -21.859375 83.0625 -16.9375 84.15625 -13.65625 C 85.25 -10.382812 87.207031 -8.109375 90.03125 -6.828125 C 92.851562 -5.554688 97.179688 -4.921875 103.015625 -4.921875 C 121.046875 -4.921875 134.066406 -12.707031 142.078125 -28.28125 C 150.097656 -43.851562 154.109375 -67.03125 154.109375 -97.8125 C 154.109375 -128.601562 149.960938 -151.421875 141.671875 -166.265625 C 133.378906 -181.109375 120.398438 -188.53125 102.734375 -188.53125 Z M 102.734375 -188.53125" transform="translate(138.772 351.91)"/></g></g></g></svg>